<?xml version="1.0" encoding="UTF-8" standalone="no"?>
<svg
   id="Layer_1"
   data-name="Layer 1"
   viewBox="0 0 1920 1080"
   version="1.1"
   sodipodi:docname="dracula-manjarosway-scalable.svg"
   width="1920"
   height="1080"
   inkscape:version="1.3.2 (091e20ef0f, 2023-11-25, custom)"
   inkscape:export-filename="desktop-settings/community/sway/usr/share/sway/themes/dracula/wallpaper.png"
   inkscape:export-xdpi="192"
   inkscape:export-ydpi="192"
   xml:space="preserve"
   xmlns:inkscape="http://www.inkscape.org/namespaces/inkscape"
   xmlns:sodipodi="http://sodipodi.sourceforge.net/DTD/sodipodi-0.dtd"
   xmlns="http://www.w3.org/2000/svg"
   xmlns:svg="http://www.w3.org/2000/svg"
   xmlns:rdf="http://www.w3.org/1999/02/22-rdf-syntax-ns#"
   xmlns:cc="http://creativecommons.org/ns#"
   xmlns:dc="http://purl.org/dc/elements/1.1/"><metadata
     id="metadata13"><rdf:RDF><cc:Work
         rdf:about=""><dc:format>image/svg+xml</dc:format><dc:type
           rdf:resource="http://purl.org/dc/dcmitype/StillImage" /><dc:title>Android robot</dc:title></cc:Work></rdf:RDF></metadata><sodipodi:namedview
     pagecolor="#ffffff"
     bordercolor="#666666"
     borderopacity="1"
     objecttolerance="10"
     gridtolerance="10"
     guidetolerance="10"
     inkscape:pageopacity="0"
     inkscape:pageshadow="2"
     inkscape:window-width="2560"
     inkscape:window-height="1410"
     id="namedview11"
     showgrid="false"
     fit-margin-top="0"
     fit-margin-left="0"
     fit-margin-right="0"
     fit-margin-bottom="0"
     inkscape:zoom="0.24383434"
     inkscape:cx="2669.8455"
     inkscape:cy="662.33494"
     inkscape:window-x="0"
     inkscape:window-y="0"
     inkscape:window-maximized="1"
     inkscape:current-layer="g46"
     inkscape:document-rotation="0"
     inkscape:snap-intersection-paths="true"
     inkscape:showpageshadow="2"
     inkscape:pagecheckerboard="0"
     inkscape:deskcolor="#d1d1d1" /><defs
     id="defs4"><style
       id="style2">.cls-1{fill:#3ddc84;}</style></defs><title
     id="title6">Android robot</title><g
     id="g902"
     inkscape:export-filename="/home/fjall/g902111.png"
     inkscape:export-xdpi="192"
     inkscape:export-ydpi="192"><rect
       style="fill:#282828;fill-opacity:1;fill-rule:nonzero;stroke-width:104.97;stroke-linecap:round;stroke-linejoin:round;paint-order:stroke markers fill"
       id="rect835"
       width="1920"
       height="1080"
       x="-7.4218752e-07"
       y="5.2734376e-06" /><path
       id="rect2943"
       style="fill:#689d6a;fill-opacity:1;stroke:none;stroke-width:7.12245;stroke-linejoin:round;stroke-miterlimit:4;stroke-dasharray:none;stroke-opacity:1;paint-order:stroke markers fill"
       d="M 0 432.61133 L 0 647.38672 L 1262.0039 647.38672 L 1262.125 645.92773 C 1266.7314 590.85879 1286.351 540.35068 1317.125 498.57812 L 1317.125 432.61133 L 0 432.61133 z " /><path
       id="rect2945"
       style="fill:#bd93f9;fill-opacity:1;stroke:none;stroke-width:6.30148;stroke-linejoin:round;stroke-miterlimit:4;stroke-dasharray:none;stroke-opacity:1;paint-order:stroke markers fill"
       d="M 0 486.30469 L 0 647.38672 L 1317.125 647.38672 L 1317.125 486.30469 L 0 486.30469 z " /><path
       id="path940"
       style="fill:#ffb86c;fill-opacity:1;stroke:none;stroke-width:5.14515;stroke-linejoin:round;stroke-miterlimit:4;stroke-dasharray:none;stroke-opacity:1;paint-order:stroke markers fill"
       d="M 0 540 L 0 647.38672 L 1317.125 647.38672 L 1317.125 540 L 0 540 z " /><path
       id="path949"
       style="fill:#ff5555;fill-opacity:1;stroke:none;stroke-width:3.68623;stroke-linejoin:round;stroke-miterlimit:4;stroke-dasharray:none;stroke-opacity:1;paint-order:stroke markers fill"
       d="M 0 593.69336 L 0 647.38672 L 1317.125 647.38672 L 1317.125 593.69336 L 0 593.69336 z " /><g
       id="g203"
       transform="matrix(1.1794263,0,0,1.144281,-1103.8949,232.20008)"><g
         id="g179"
         transform="matrix(3.7795276,0,0,3.7795276,1847.4103,-34.103055)"><g
           id="layer4"
           inkscape:label="Foundation"
           style="display:inline"
           transform="translate(-82.184437,-68.186982)" /><g
           inkscape:label="Surface"
           id="layer1"
           style="display:inline"
           transform="translate(-82.184437,-68.186982)"><g
             id="g46"
             transform="translate(0.17011448,-2.3350117)"><g
               id="g71"><path
                 style="display:inline;fill:#ebdbb2;fill-opacity:1;stroke:none;stroke-width:0.264952px;stroke-linecap:butt;stroke-linejoin:miter;stroke-opacity:1"
                 d="m 101.6423,162.27345 15.36313,5.85493 54.31531,-21.30711 v -7.75609 l -34.97611,-10.5389 -54.329516,18.10669 -7.96e-4,8.16921 15.361557,5.85069 4.304815,-1.67489 z"
                 id="path4752"
                 inkscape:connector-curvature="0"
                 sodipodi:nodetypes="cccccccccc" /><path
                 style="display:inline;fill:#ebdbb2;fill-opacity:1;stroke:#000000;stroke-width:0.264583px;stroke-linecap:butt;stroke-linejoin:miter;stroke-opacity:0"
                 d="m 121.16019,161.40451 v 8.34652 l 15.17296,5.79449 54.37187,-20.74334 -0.0604,-8.35123 z"
                 id="path3930"
                 inkscape:connector-curvature="0"
                 sodipodi:nodetypes="cccccc"
                 transform="translate(1.2083334e-6)" /></g><g
               id="g3802"
               transform="matrix(0.26458333,0,0,0.26458333,-338.43518,74.210094)"><g
                 id="g67"
                 style="fill:#ebdbb2;fill-opacity:1"><path
                   id="path3765"
                   d="m 1656.3,277.2 c -2.5,-57 55.2,-87.7 97.8,-111.1 37.2,-20.3 83.7,-46.8 74.1,-96.4 -2,-10.3 -17.8,-6 -15.8,4.4 4.4,22.7 -8.5,39.9 -25.8,53 -20.3,15.4 -43.7,26.3 -65.9,38.8 -40.8,23.2 -83.1,59.9 -81,111.3 0.8,10.5 17.1,10.5 16.6,0 z"
                   inkscape:connector-curvature="0"
                   style="fill:#ebdbb2;fill-opacity:1" /><path
                   id="path3767"
                   d="m 1728,183.7 c 56.6,11.8 116.4,-5.1 158.3,-45 7.6,-7.3 -4,-18.9 -11.6,-11.6 -37.4,35.8 -91.7,51.4 -142.3,40.8 -10.4,-2 -14.8,13.6 -4.4,15.8 z"
                   inkscape:connector-curvature="0"
                   style="fill:#ebdbb2;fill-opacity:1" /></g><g
                 id="g1"
                 style="fill:#6272a4;fill-opacity:1"><g
                   transform="matrix(0.81375943,-2.9179993e-6,0.02757483,0.60064657,1624.1525,390.50724)"
                   id="layer0"
                   style="display:inline;fill:#6272a4;fill-opacity:1"><g
                     transform="matrix(3.8839286,2.0206476,-4,2.0385054,219.51786,-324.89332)"
                     id="logo"
                     style="fill:#6272a4;fill-opacity:1"><path
                       style="opacity:1;fill:#6272a4;fill-opacity:1;stroke:none;stroke-width:3.00419;stroke-miterlimit:4;stroke-dasharray:none;stroke-opacity:1"
                       d="M 0.08949597,-0.08871029 0,64 l 18.025308,-0.02509 0.06433,-46.063761 23.032339,-0.03205 0.02517,-18.02494981 z"
                       id="rect4138"
                       inkscape:connector-curvature="0" /><path
                       style="opacity:1;fill:#6272a4;fill-opacity:1;stroke:none;stroke-width:3;stroke-miterlimit:4;stroke-dasharray:none;stroke-opacity:1"
                       d="m 22.999999,23 2e-6,41 H 41 V 23 Z"
                       id="rect4140"
                       inkscape:connector-curvature="0" /><path
                       style="opacity:1;fill:#6272a4;fill-opacity:1;stroke:none;stroke-width:3;stroke-miterlimit:4;stroke-dasharray:none;stroke-opacity:1"
                       d="M 46,1e-6 V 64 H 64 V 1e-6 Z"
                       id="rect4142"
                       inkscape:connector-curvature="0" /></g></g><g
                   id="g63"
                   style="fill:#6272a4;fill-opacity:1"><path
                     id="path3773"
                     d="m 1958.9,60.1 c 5.8,0.2 12.5,1.6 15.2,6.9 2.2,4.4 0.5,9.6 -2.5,13.3 -3.3,3.6 -7.6,5.6 -12.2,7.4 -22.5,9.4 -46.6,15.1 -71,16.7 -6.7,0.4 -13.8,0.5 -20.3,-1.6 -6.5,-2.1 -12.3,-7.1 -14.2,-13.6 -4,-15.1 29,-20 37.9,-21.6 8.9,-1.6 17.8,-2.7 26.7,-3.1 13.5,-1 26.6,-5 40.4,-4.4 z"
                     inkscape:connector-curvature="0"
                     style="fill:#6272a4;fill-opacity:1" /><g
                     id="g52"
                     style="fill:#6272a4;fill-opacity:1"><path
                       id="path3769"
                       d="m 1727.8,64.8 c 14.9,3.6 40.1,-13.6 51.4,-19.1 14.5,-7.1 29.6,-12.5 44.3,-19.1 5.6,-2.5 24,-8.3 24.1,-16.5 0.4,-10.2 -19.1,-10.7 -25.4,-10 -12.9,1.3 -25.4,5.3 -37.8,8.9 -12.7,3.8 -25,8.9 -36.8,15.2 -8.9,4.7 -21.1,13.1 -26.3,21.8 -3.3,5.3 -3.1,13.1 2,16.7 1.2,1 2.9,1.7 4.5,2.1 z"
                       inkscape:connector-curvature="0"
                       style="fill:#6272a4;fill-opacity:1" /><path
                       id="path3771"
                       d="m 1819.1,37.2 c 2.5,-1.5 5.1,-2.7 7.6,-4 21.1,-10 45.4,-18.2 69.3,-20 20.9,-1.6 43.9,-5.4 64.6,0.2 10.7,2.9 22.5,13.3 16.9,23.2 -4.2,7.4 -21.2,17.4 -28.7,22.9 -27.4,19.4 -65.7,28 -100.7,29.8 -25.4,1.3 -67.3,-13.3 -44.1,-40.7 4,-4.5 9.3,-8.1 15.1,-11.4 z"
                       inkscape:connector-curvature="0"
                       style="fill:#6272a4;fill-opacity:1" /><path
                       id="path3775"
                       d="m 1955.6,158.8 c -8.9,-22 -62.4,2.2 -74.6,10 -4.5,2.9 -9.3,7.3 -8.3,12.5 0.9,5.6 7.6,8.2 13.4,8.9 14.1,1.8 80,-5.4 69.5,-31.4 z"
                       inkscape:connector-curvature="0"
                       style="fill:#6272a4;fill-opacity:1" /><path
                       id="path3777"
                       d="m 1787.5,87.7 c -2.2,14.5 -21.8,30.5 -34.9,35 -12.7,4.5 -33.9,-4.9 -26.1,-20.3 6.9,-13.4 41,-37.4 55.9,-27.6 4.2,2.7 5.8,8.2 5.1,12.9 z"
                       inkscape:connector-curvature="0"
                       style="fill:#6272a4;fill-opacity:1" /><path
                       id="path3779"
                       d="m 1825.1,159.9 c 20.9,2.5 42.3,-0.2 61.9,-7.6 4.4,-1.6 8.9,-3.8 10.7,-8.2 1.3,-3.3 0.4,-7.3 -2.2,-9.6 -2.5,-2.4 -6.5,-3.1 -9.6,-1.6 -5.8,-6.4 -16,-5.8 -24.5,-4.2 -13.4,2.7 -26.7,7.6 -38.8,14 -4.4,2.4 -9.3,6.4 -8,11.1 1.2,4.1 6.3,5.6 10.5,6.1 z"
                       inkscape:connector-curvature="0"
                       style="fill:#6272a4;fill-opacity:1" /><path
                       id="path3781"
                       d="m 1849.4,143 c 27.6,6.2 57.9,-1.8 81.5,-17.1 3.1,-2 6.5,-5.1 6,-8.9 -0.7,-4.5 -6.5,-6 -11.3,-5.8 -26.9,0.4 -54.1,7.1 -77.5,20.7 -2.7,1.5 -5.6,4 -4.9,6.9 0.8,2.6 3.7,3.7 6.2,4.2 z"
                       inkscape:connector-curvature="0"
                       style="fill:#6272a4;fill-opacity:1" /><path
                       id="path3783"
                       d="m 1711.1,106.4 c 2.5,-3.1 4.7,-6.9 3.6,-10.5 -5.1,-20.1 -32.5,6 -39,12 -8.3,7.6 -8,14.3 5.6,14.3 11.3,-0.2 23.1,-7.7 29.8,-15.8 z"
                       inkscape:connector-curvature="0"
                       style="fill:#6272a4;fill-opacity:1" /></g></g></g></g></g></g></g></g></g></svg>
