<svg xmlns="http://www.w3.org/2000/svg" viewBox="0 0 3840 2160">
  <path d="M0 0h3840v2160H0z" fill="#000" />
  <path fill="#fff" d="m2388.34 1439.64 136.94 50.68 484.28-184.24v-67.12l-311.86-91.16-484.36 156.56v70.66l136.94 50.7 38.34-14.54Zm0 0"/>
  <path fill="#fff" d="M2562.38 1432.2v72.14l135.24 50.16 484.7-179.48-.52-72.2Zm-190.28-119.82c-5.9-130.46 130.2-200.72 230.7-254.28 87.76-46.46 197.44-107.12 174.8-220.64-4.72-23.56-42-13.72-37.28 10.08 10.4 51.96-20.04 91.32-60.86 121.3-47.88 35.24-103.08 60.2-155.44 88.8-96.26 53.1-196.04 137.1-191.08 254.74 1.88 24.02 40.34 24.02 39.16 0Zm0 0"/>
  <path fill="#fff" d="M2541.24 1098.4c133.5 27 274.58-11.7 373.4-103 17.94-16.72-9.42-43.26-27.36-26.56-88.2 81.94-216.3 117.64-335.66 93.38-24.54-4.58-34.92 31.12-10.4 36.16Zm0 0"/>
  <path fill="#00f" d="m2697.88 1125.08-484.32 179.34 137.04 50 348.02-128.9 174.98 63.88 136.28-50.44Zm0 0"/>
  <path fill="#00f" d="m2697.48 1253.4-309.4 114.9 136.6 50 309.38-114.9Zm348.06-.56L2562.6 1432.2l136.58 50 482.94-179.34Zm40.36-437.34c13.7.46 29.5 3.66 35.86 15.8 5.2 10.06 1.2 21.96-5.9 30.42-7.78 8.24-17.92 12.82-28.78 16.94a538.05 538.05 0 0 1-167.48 38.22c-15.8.92-32.54 1.14-47.88-3.66-15.34-4.8-29-16.24-33.5-31.12-9.44-34.56 68.4-45.78 89.4-49.44 21-3.66 42-6.18 63-7.1 31.84-2.28 62.74-11.44 95.28-10.06Zm-545.14 10.76c35.14 8.24 94.6-31.14 121.24-43.72 34.2-16.26 69.84-28.6 104.52-43.72 13.2-5.72 56.6-19 56.84-37.76.94-23.34-45.06-24.5-59.92-22.88-30.42 2.96-59.92 12.12-89.16 20.36-30 8.74-59.07 20.4-86.8 34.8-21 10.74-49.8 29.98-62.06 49.88-7.78 12.14-7.3 30 4.72 38.22a27.86 27.86 0 0 0 10.62 4.8Zm0 0"/>
  <path fill="#00f" d="M2756.14 763.08c5.88-3.44 12.02-6.18 17.92-9.16 49.78-22.88 107.1-41.64 163.48-45.76 49.3-3.66 103.54-12.36 152.38.46 25.24 6.62 53.08 30.44 39.86 53.08-9.9 16.94-50 39.84-67.7 52.42-64.64 44.4-154.98 64.08-237.54 68.2-59.92 2.98-158.76-30.44-104.02-93.14 9.42-10.3 21.92-18.54 35.6-26.1Zm321.98 278.32c-21-50.36-147.2 5.02-175.98 22.88-10.6 6.64-21.92 16.7-19.58 28.6 2.14 12.82 17.94 18.78 31.62 20.38 33.26 4.12 188.72-12.36 163.94-71.86ZM2681.6 878.66c-5.2 33.2-51.44 69.8-82.34 80.1-29.96 10.3-79.96-11.2-61.56-46.46 16.28-30.66 96.72-85.6 131.86-63.16 9.9 6.18 13.68 18.76 12.02 29.52Zm88.68 165.24c49.36 5.65 99.36-.3 146.02-17.4 10.4-3.64 21-8.68 25.24-18.76a19.7 19.7 0 0 0-5.2-21.96 21.07 21.07 0 0 0-22.64-3.66c-13.68-14.66-37.74-13.28-57.8-9.6a349.69 349.69 0 0 0-91.52 32.02c-10.38 5.5-21.94 14.66-18.86 25.4 2.82 9.4 14.86 12.82 24.76 13.96Zm0 0"/>
  <path fill="#00f" d="M2827.6 1005.24c65.12 14.18 136.6-4.12 192.26-39.14 7.32-4.6 15.34-11.68 14.16-20.38-1.66-10.3-15.34-13.72-26.66-13.28-63.46.92-127.62 16.26-182.82 47.4-6.36 3.4-13.2 9.14-11.56 15.78 1.88 5.94 8.72 8.46 14.62 9.6Zm-326.24-83.78c5.9-7.1 11.1-15.8 8.5-24.02-12.04-46-76.66 13.72-92 27.46-19.58 17.4-18.88 32.72 13.2 32.72 26.66-.46 54.5-17.6 70.3-36.16Zm0 0"/>
</svg>
