<svg xmlns="http://www.w3.org/2000/svg" xml:space="preserve" data-name="Layer 1" viewBox="0 0 1920 1080">
  <path d="M0 0h1920v1080H0z" paint-order="stroke markers fill"/>
  <g fill="#fff">
    <path d="m1194.17 719.82 68.47 25.34 242.14-92.12v-33.56l-155.93-45.58-242.18 78.28v35.33l68.47 25.35 19.17-7.27z"/>
    <path d="M1281.19 716.1v36.07l67.62 25.08 242.35-89.74-.26-36.1z"/>
  </g>
  <g fill="#fff">
    <path d="M1186.05 656.19c-2.95-65.23 65.1-100.36 115.35-127.14 43.88-23.23 98.72-53.56 87.4-110.32-2.36-11.78-21-6.86-18.64 5.04 5.2 25.98-10.02 45.66-30.43 60.65-23.94 17.62-51.54 30.1-77.72 44.4-48.13 26.55-98.02 68.55-95.54 127.37.94 12.01 20.17 12.01 19.58 0z"/>
    <path d="M1270.62 549.2c66.75 13.5 137.29-5.85 186.7-51.5 8.97-8.36-4.71-21.63-13.68-13.28-44.1 40.97-108.15 58.82-167.83 46.69-12.27-2.29-17.46 15.56-5.2 18.08z"/>
  </g>
  <g fill="#00f">
    <path d="m1348.94 562.54-242.16 89.67 68.52 25 174.01-64.45 87.49 31.94 68.14-25.22z"/>
    <path d="m1348.74 626.7-154.7 57.45 68.3 25 154.69-57.45Zm174.03-.28L1281.3 716.1l68.29 25 241.47-89.67Zm20.18-218.67c6.85.23 14.75 1.83 17.93 7.9 2.6 5.03.6 10.98-2.95 15.21-3.89 4.12-8.96 6.41-14.39 8.47a262.31 254.5 0 0 1-83.74 19.11c-7.9.46-16.27.57-23.94-1.83s-14.5-8.12-16.75-15.56c-4.72-17.28 34.2-22.89 44.7-24.72 10.5-1.83 21-3.09 31.5-3.55 15.92-1.14 31.37-5.72 47.64-5.03zm-272.57 5.38c17.57 4.12 47.3-15.57 60.62-21.86 17.1-8.13 34.92-14.3 52.26-21.86 6.6-2.86 28.3-9.5 28.42-18.88.47-11.67-22.53-12.25-29.96-11.44-15.21 1.48-29.96 6.06-44.58 10.18a239.5 239.5 0 0 0-43.4 17.4c-10.5 5.37-24.9 14.99-31.03 24.94-3.89 6.07-3.65 15 2.36 19.11a13.95 13.95 0 0 0 5.31 2.4z"/>
    <path d="M1378.07 381.54c2.94-1.72 6.01-3.09 8.96-4.58 24.89-11.44 53.55-20.82 81.74-22.88 24.65-1.83 51.77-6.18 76.19.23 12.62 3.31 26.54 15.22 19.93 26.54-4.95 8.47-25 19.92-33.85 26.21-32.32 22.2-77.49 32.04-118.77 34.1-29.96 1.49-79.38-15.22-52.01-46.57 4.71-5.15 10.96-9.27 17.8-13.05zm160.99 139.16c-10.5-25.18-73.6 2.51-87.99 11.44-5.3 3.32-10.96 8.35-9.79 14.3 1.07 6.41 8.97 9.39 15.81 10.19 16.63 2.06 94.36-6.18 81.97-35.93zm-198.26-81.37c-2.6 16.6-25.72 34.9-41.17 40.05-14.98 5.15-39.98-5.6-30.78-23.23 8.14-15.33 48.36-42.8 65.93-31.58 4.95 3.09 6.84 9.38 6.01 14.76zm44.34 82.62a159.5 159.5 0 0 0 73.01-8.7c5.2-1.82 10.5-4.34 12.62-9.38a9.85 9.85 0 0 0-2.6-10.98 10.3 10 0 0 0-11.32-1.83c-6.84-7.33-18.87-6.64-28.9-4.8a174.78 174.78 0 0 0-45.76 16.01c-5.19 2.75-10.97 7.33-9.43 12.7 1.41 4.7 7.43 6.41 12.38 6.98z"/>
    <path d="M1413.8 502.62c32.56 7.09 68.3-2.06 96.13-19.57 3.66-2.3 7.67-5.84 7.08-10.19-.83-5.15-7.67-6.86-13.33-6.64-31.73.46-63.81 8.13-91.41 23.7-3.18 1.7-6.6 4.57-5.78 7.89.94 2.97 4.36 4.23 7.31 4.8zm-163.12-41.89c2.95-3.55 5.55-7.9 4.25-12.01-6.02-23-38.33 6.86-46 13.73-9.79 8.7-9.44 16.36 6.6 16.36 13.33-.23 27.25-8.8 35.15-18.08z"/>
  </g>
</svg>
